<?xml version="1.0" encoding="UTF-8"?>
<svg id="Capa_1" data-name="Capa 1" xmlns="http://www.w3.org/2000/svg" version="1.1" viewBox="0 0 40 40">
  <defs>
    <style>
      .cls-1 {
        fill: #000;
        stroke-width: 0px;
      }
    </style>
  </defs>
  <path class="cls-1" d="M37,12.1c-.3-.3-.7-.3-1.2-.3H9.5s-.6-3-.8-4.3c-.3-1.6-1.3-2.7-2.8-3-.6-.1-1.3-.1-2-.1s-1.3.6-1.3,1.3.6,1.2,1.3,1.3h.8c1,0,1.4.3,1.5,1.3,1,5.2,2.1,10.5,3,15.8.5,2.2.9,4.4.8,6.7,0,.9.3,1.7.9,2.3.7.8,1.7,1.3,2.8,1.3h2.5c.5.9,1.4,1.6,2.5,1.6s2.1-.7,2.5-1.6h2.1c.5.9,1.4,1.6,2.5,1.6s2.1-.7,2.5-1.6h2.7c.7,0,1.3-.6,1.3-1.3s-.6-1.2-1.3-1.3h-2.7c-.5-.9-1.4-1.5-2.4-1.5s-2,.6-2.4,1.5h-2.2c-.5-.9-1.4-1.5-2.4-1.5s-2,.6-2.4,1.5h-2.5c-.7,0-1.2-.6-1.2-1.2v-1.3h16.7c.7,0,1.4,0,2.1-.5.9-.5,1.3-1.4,1.5-2.3.7-2.1,1.4-4.3,2.1-6.4.7-2.2,1.4-4.3,2.2-6.5.2-.6.1-1-.2-1.4h-.3Z"/>
</svg>