<?xml version="1.0" encoding="UTF-8"?>
<svg id="Capa_1" data-name="Capa 1" xmlns="http://www.w3.org/2000/svg" version="1.1" viewBox="0 0 40 40">
  <defs>
    <style>
      .cls-1 {
        fill: #fff;
        stroke-width: 0px;
      }
    </style>
  </defs>
  <path class="cls-1" d="M32.5,21.9h-2.8s0,12.6,0,12.6c0,0-24.2,0-24.2,0V10.3s12.6,0,12.6,0v-2.9s-9.8,0-12.5,0h0c-.9,0-1.6.3-2.1.8-.6.6-.9,1.4-.9,2.3,0,5.9,0,23.9,0,23.9,0,1.9,1.1,3.1,3,3.1h24c1.9,0,3-1.1,3-3,0-3.9,0-7.8,0-11.7,0-.1,0-.3,0-.4v-.5Z"/>
  <path class="cls-1" d="M36.4,4.8c-.2-.2-.4-.4-.6-.6-.2-.2-.4-.4-.6-.6-1.5-1.5-3.6-1.5-5.1,0-3.1,3.1-15.1,15.1-15.8,15.8-.1.1-.3.4-.4.7-.7,2.2-2.1,8.1-2.1,8.1,0,0,5.9-1.4,8.1-2.1.3,0,.5-.3.7-.4.6-.6,12.7-12.7,15.7-15.8,1.5-1.5,1.5-3.6,0-5.1ZM15.4,24.7l.7-2.4.8.8.8.8-2.4.7ZM20.1,22.2l-1.1-1.1-1.1-1.1,11.3-11.3,1.1,1.1,1.1,1.1-11.3,11.3ZM34.6,7.8c-.3.3-.6.7-1,1l-.2.2-1.3-1.3-1.3-1.3.2-.2c.3-.3.7-.6,1-1,.3-.3.7-.3,1,0,.3.2.5.5.8.7.3.3.5.5.7.8.3.3.3.7,0,1Z"/>
</svg>