<?xml version="1.0" encoding="UTF-8"?>
<svg id="Capa_1" data-name="Capa 1" xmlns="http://www.w3.org/2000/svg" version="1.1" viewBox="0 0 40 40">
  <defs>
    <style>
      .cls-1 {
        fill: #000;
        stroke-width: 0px;
      }
    </style>
  </defs>
  <path class="cls-1" d="M37.8,15c-.8-1.5-1.7-3-2.5-4.5-.1-.2-.3-.3-.5-.4-4.8-1.8-9.5-3.6-14.3-5.4-.4-.2-.8-.1-1.1,0-4.7,1.8-9.5,3.6-14.2,5.4-.2,0-.4.2-.5.4-.8,1.5-1.7,3-2.5,4.5-.3.6-.2,1,.4,1.3.6.2,1.2.5,1.9.7.3.1.4.3.4.6,0,3.8,0,7.6,0,11.5,0,.7,0,.8.7,1.1,4.3,1.8,8.6,3.5,12.9,5.3.5.2.9.2,1.3,0,4.8-1.8,9.5-3.5,14.3-5.3.7-.3.8-.4.8-1.1,0-3.8,0-7.6,0-11.4,0-.3,0-.4.3-.5.7-.2,1.3-.5,1.9-.7.4-.1.7-.3.8-.7v-.2c0-.1-.1-.3-.2-.4ZM3.8,15.1c.6-1.1,1.2-2.2,1.8-3.3,4.1,1.6,8.3,3.3,12.4,4.9-.6,1.1-1.1,2.1-1.7,3.2-4.2-1.6-8.3-3.2-12.5-4.8ZM18.4,33.7c-.7-.3-8.5-3.5-11.6-4.8-.3-.1-.4-.2-.4-.5,0-3.4,0-6.9,0-10.3v-.4c1,.4,7.5,2.9,9.8,3.8.6.2.9.1,1.2-.5.3-.5.6-1,.9-1.6v14.3ZM19.5,15.4c-.2,0-.4,0-.6,0-3.7-1.5-7.5-3-11.2-4.5,0,0-.1,0-.3-.1.9-.4,9.1-3.5,12.3-4.7.1,0,.4,0,.5,0,4,1.5,12.1,4.6,12.2,4.7-.4.1-9,3.2-12.9,4.7ZM33.1,28.9c-4.3,1.6-8.7,3.2-13,4.8,0,0-.1,0-.2,0v-15c.4.5.7,1,1,1.4.3.4.6.8.8,1.2.3.5.6.6,1.2.4,3.4-1.3,6.7-2.6,10.1-3.9.1,0,.2,0,.4-.1,0,.1,0,.2,0,.3,0,3.4,0,6.9,0,10.3,0,.2,0,.4-.3.4ZM33.6,16c-3.5,1.3-6.9,2.7-10.4,4-.3.1-.5.1-.7-.2-.6-1-1.3-1.9-2-2.9,0,0-.1-.2-.2-.3,4.7-1.7,9.3-3.3,13.9-5,.6,1.1,1.2,2.2,1.9,3.4-.9.3-1.7.7-2.6,1Z"/>
</svg>