<?xml version="1.0" encoding="UTF-8"?>
<svg id="Capa_1" data-name="Capa 1" xmlns="http://www.w3.org/2000/svg" version="1.1" viewBox="0 0 40 40">
  <defs>
    <style>
      .cls-1 {
        fill: #fff;
        stroke-width: 0px;
      }
    </style>
  </defs>
  <path class="cls-1" d="M26.7,23.5c0,0-.1,0-.2-.1,2.1-3,2.9-6.3,2.4-9.8-.5-3.6-2.2-6.5-5-8.7C18.7.8,11.3,1.1,6.4,5.5,1.6,9.9.6,17.2,4.1,22.8c1.8,2.8,4.2,4.7,7.3,5.6,4.2,1.3,8.2.6,11.9-1.9,0,0,.1.1.2.2,3.5,3.5,7,7,10.5,10.5,0,0,.1.1.2.2,1.1,1,2.9.7,3.6-.7.4-.9.2-1.9-.5-2.6-3.5-3.5-7.1-7.1-10.6-10.6ZM15.5,24.5c-5,0-9-4.1-9-9,0-5,4-9,9-9,5,0,9,4,9,9,0,5-4,9-9,9Z"/>
</svg>