<?xml version="1.0" encoding="UTF-8"?>
<svg id="Capa_1" data-name="Capa 1" xmlns="http://www.w3.org/2000/svg" version="1.1" viewBox="0 0 40 40">
  <defs>
    <style>
      .cls-1 {
        fill: #fff;
        stroke-width: 0px;
      }
    </style>
  </defs>
  <path class="cls-1" d="M37.2,23.3v-.3c-.3-.7-.5-1.3-.7-1.9l-11.2,3.8,9.5-7c-.8-1.2-1.6-2.2-2.6-3.1l-8.5,8.2,5.7-10.4c-.5-.3-1-.6-1.6-.9h-.2c-.6-.4-1.3-.6-1.9-.9l-4.3,11.2.8-11.9c-.7,0-1.4-.1-2.1-.1s-1.4,0-2.1.1l.8,11.9-4.3-11.2c-.7.2-1.3.5-1.9.8h-.2c-.5.4-1.1.7-1.6,1l5.7,10.4L7.9,14.8c-1,.9-1.9,2-2.6,3.1l9.5,7-11.2-3.8c-.2.6-.5,1.3-.6,1.9v.3c-.2.6-.3,1.2-.4,1.8l13.4,2.6c.1-2.2,1.9-3.9,4.1-3.9s4,1.7,4.1,3.9l13.4-2.6c0-.6-.2-1.2-.3-1.8Z"/>
  <path class="cls-1" d="M20,24.8c-1.7,0-3.1,1.4-3.2,3.1l1.4.3s0,0,0,0c0,1,.8,1.8,1.8,1.8s1.8-.8,1.8-1.8,0,0,0,0l1.4-.3c0-1.7-1.4-3.1-3.2-3.1Z"/>
</svg>