<?xml version="1.0" standalone="no"?>
<!DOCTYPE svg PUBLIC "-//W3C//DTD SVG 20010904//EN"
 "http://www.w3.org/TR/2001/REC-SVG-20010904/DTD/svg10.dtd">
<svg version="1.0" xmlns="http://www.w3.org/2000/svg"
 width="100%" height="100%" viewBox="270 130 470 470"
 preserveAspectRatio="xMidYMid meet">

<g transform="translate(0.000000,770.000000) scale(0.100000,-0.100000)"
fill="#000000" stroke="none">
<!-- Círculo / Arco exterior en color rojo #dc2626 -->
<path fill="#dc2626" d="M4943 6119 c-94 -8 -164 -20 -353 -63 -191 -43 -503 -187 -687 -318
-579 -408 -919 -1022 -959 -1728 -15 -276 52 -655 164 -930 72 -175 232 -448
327 -555 26 -30 21 -19 -21 45 -70 107 -193 357 -234 475 -63 183 -104 396
-115 595 -7 117 7 356 26 465 104 590 440 1099 944 1427 216 140 440 233 700
290 126 27 163 31 366 35 251 6 333 -1 529 -47 450 -105 867 -369 1161 -735
190 -237 317 -489 393 -780 110 -417 88 -901 -60 -1289 -47 -124 -155 -339
-220 -439 -63 -95 -21 -52 61 63 103 147 222 369 209 392 -4 7 -4 10 1 6 21
-19 113 253 157 462 32 153 32 158 32 430 l0 275 -36 165 c-34 154 -80 298
-142 446 -31 74 -71 146 -77 139 -3 -2 -5 4 -5 13 0 24 -85 164 -166 273 -210
284 -477 507 -796 669 -46 23 -90 39 -98 36 -8 -3 -13 -2 -10 3 7 11 -26 26
-149 68 -294 101 -613 139 -942 112z"/>

<!-- Cabello principal (Corregido y unificado sin puntos blancos) -->
<path d="M5010 5364 c-203 -37 -319 -74 -430 -137 -126 -71 -250 -188 -313
-295 -34 -58 -77 -172 -77 -204 0 -10 -3 -18 -8 -18 -4 0 -47 45 -96 100 -48
55 -92 98 -97 94 -5 -3 -7 -9 -5 -13 3 -4 -8 -20 -23 -35 -20 -20 -30 -24 -33
-14 -3 7 11 27 31 44 l35 32 -94 101 c-84 91 -97 102 -124 99 -22 -2 -35 -11
-44 -30 -17 -35 -2 -66 63 -128 26 -25 132 -133 236 -242 l189 -196 -59 -40
-60 -40 -58 30 c-32 16 -103 54 -159 84 -56 30 -106 54 -112 54 -6 0 -21 -18
-33 -40 -12 -21 -26 -37 -31 -34 -4 3 -8 2 -8 -1 0 -3 24 -17 53 -29 28 -13
101 -47 161 -75 l110 -51 -45 -48 c-96 -100 -161 -205 -212 -344 -95 -257 -95
-565 2 -755 66 -132 194 -263 356 -368 80 -52 217 -125 234 -125 4 0 -1 42
-12 93 -17 74 -21 128 -21 277 -1 169 2 194 26 289 60 228 168 380 326 458
l72 36 23 -20 c125 -112 364 -162 542 -114 406 110 599 563 390 914 -28 47
-31 57 -17 57 59 -1 349 -99 420 -142 l32 -20 0 74 c0 192 -133 407 -335 543
-179 120 -365 175 -615 180 -85 2 -166 1 -180 -1z"/>

<!-- Tocado / Accesorios izquierdo -->
<path d="M3447 4732 c-22 -24 -21 -58 1 -78 10 -8 67 -38 127 -65 l108 -50 24
25 c12 14 23 30 23 36 0 5 5 10 12 10 24 0 -17 28 -123 84 -113 60 -146 67
-172 38z"/>

<!-- Tocado / Accesorios derecho -->
<path d="M5817 4569 c74 -220 30 -457 -118 -636 -21 -26 -35 -50 -31 -53 4 -3
33 -26 65 -50 101 -75 178 -201 221 -360 51 -191 58 -453 17 -640 -11 -47 -17
-87 -15 -89 2 -2 45 17 96 44 424 218 600 492 568 885 -28 348 -197 645 -461
813 -111 70 -307 157 -354 157 -7 0 -3 -25 12 -71z"/>

<!-- Labios en color rojo #dc2626 -->
<path fill="#dc2626" d="M5035 2342 c-16 -11 -37 -27 -45 -37 -8 -10 -28 -26 -44 -36 l-29
-18 26 -12 c15 -7 27 -18 27 -25 0 -22 68 -80 109 -92 53 -17 125 -15 169 4
42 17 102 71 102 91 0 8 12 18 27 24 l27 10 -35 21 c-19 11 -37 26 -42 33 -4
8 -23 23 -42 35 -38 24 -76 21 -106 -6 -15 -13 -21 -13 -50 5 -42 26 -56 26
-94 3z"/>
</g>

<!-- Flor de Cerezo (Rosa) en color rojo acento con pistilo blanco -->
<g transform="translate(425, 312)" fill="#dc2626">
  <path d="M 0 0 C -5 -12, -15 -12, -15 -5 C -15 5, -5 5, 0 0 Z" transform="rotate(0) scale(1.5)"/>
  <path d="M 0 0 C -5 -12, -15 -12, -15 -5 C -15 5, -5 5, 0 0 Z" transform="rotate(72) scale(1.5)"/>
  <path d="M 0 0 C -5 -12, -15 -12, -15 -5 C -15 5, -5 5, 0 0 Z" transform="rotate(144) scale(1.5)"/>
  <path d="M 0 0 C -5 -12, -15 -12, -15 -5 C -15 5, -5 5, 0 0 Z" transform="rotate(216) scale(1.5)"/>
  <path d="M 0 0 C -5 -12, -15 -12, -15 -5 C -15 5, -5 5, 0 0 Z" transform="rotate(288) scale(1.5)"/>
  <circle cx="0" cy="0" r="4" fill="#FFFFFF"/>
</g>
</svg>
