<?xml version="1.0" encoding="UTF-8"?>
<svg id="Capa_1" data-name="Capa 1" xmlns="http://www.w3.org/2000/svg" version="1.1" viewBox="0 0 40 40">
  <defs>
    <style>
      .cls-1 {
        fill: #000;
        stroke-width: 0px;
      }
    </style>
  </defs>
  <path class="cls-1" d="M36,9.2c0,0,0-.2,0-.3,0-.3-.3-.5-.6-.6,0,0-.2,0-.3,0-2.2,0-4.4,0-6.6,0-.1,0-.2,0-.3,0,0-.1,0-.2-.1-.3-.5-1.2-1-2.3-1.5-3.5-.5-1.2-2-2.1-3.1-2.1-2.4,0-4.8,0-7.2,0-1.2,0-2.7.9-3.1,2.1-.5,1.2-1,2.3-1.5,3.5,0,0,0,.2-.1.3-.1,0-.2,0-.3,0-2.2,0-4.4,0-6.6,0-.5,0-.8.3-.8.8,0,.5,0,.9,0,1.4,0,.5.3.7.8.7.4,0,1.8,0,2.2,0,0,.2,0,.3,0,.4,0,7.1,0,14.2,0,21.3,0,.1,0,.2,0,.4,0,1.1.4,2.2,1.2,3,.7.8,1.5,1.2,2.6,1.2,3.1,0,15.6,0,18.7,0,.5,0,.9,0,1.3-.3.6-.3,1-.7,1.4-1.1.7-.9,1-2,1-3.2,0-4.1,0-8.2,0-12.4,0-3,0-6,0-8.9,0-.1,0-.2,0-.3.1,0,1.6,0,2.2,0,.2,0,.4,0,.6-.3.1-.2.1-.3.1-.5,0-.4,0-.9,0-1.3ZM15,8.1c.3-.8.7-1.6,1-2.3.1-.3.3-.4.6-.4,2.3,0,4.6,0,6.9,0,.3,0,.5.1.6.4.3.8.7,1.6,1,2.4,0,0,0,0,0,.2h-10.1c0,0,0-.1,0-.2ZM29.9,34.1c0,0,0,.2-.1.2-.1.2-.3.3-.5.3-6.2,0-12.3,0-18.5,0-.3,0-.4-.1-.6-.3-.3-.4-.4-.8-.4-1.3,0,0,0-.2,0-.3,0-7,0-14.1,0-21.1v-.4h20.4s0,14.4,0,21.5c0,.5,0,.9-.3,1.4Z"/>
  <path class="cls-1" d="M15.6,16.3c0-.4-.3-.7-.7-.7-.5,0-1.1,0-1.6,0-.4,0-.6.3-.7.6,0,0,0,.2,0,.3,0,4.2,0,8.5,0,12.7,0,0,0,.2,0,.3,0,.3.3.6.6.6.5,0,1.1,0,1.6,0,.4,0,.6-.3.6-.7,0,0,0-.2,0-.3,0-2.1,0-4.3,0-6.4,0-2.1,0-4.2,0-6.3,0,0,0-.2,0-.3Z"/>
  <path class="cls-1" d="M21.5,16.6c0-.1,0-.2,0-.3,0-.3-.3-.6-.6-.6-.6,0-1.1,0-1.7,0-.3,0-.5.2-.6.5,0,.1,0,.3,0,.4,0,4.2,0,8.5,0,12.7,0,.1,0,.2,0,.4,0,.3.3.5.6.5.5,0,1.1,0,1.6,0,.4,0,.6-.3.6-.6,0,0,0-.2,0-.3,0-2.1,0-4.2,0-6.4,0-2.1,0-4.2,0-6.3Z"/>
  <path class="cls-1" d="M27.3,16.3c0-.4-.3-.6-.7-.6-.5,0-1.1,0-1.6,0-.3,0-.6.2-.7.6,0,0,0,.2,0,.3,0,4.3,0,8.5,0,12.8,0,.1,0,.2,0,.3,0,.3.3.5.6.6.5,0,1.1,0,1.6,0,.4,0,.6-.3.6-.6,0-.1,0-.2,0-.4,0-2.1,0-4.2,0-6.3,0-2.1,0-4.2,0-6.3,0-.1,0-.2,0-.4Z"/>
</svg>