<?xml version="1.0" encoding="UTF-8"?>
<svg id="Capa_1" data-name="Capa 1" xmlns="http://www.w3.org/2000/svg" version="1.1" viewBox="0 0 40 40">
  <defs>
    <style>
      .cls-1 {
        fill: #fff;
        stroke-width: 0px;
      }
    </style>
  </defs>
  <path class="cls-1" d="M21.2,4.5c-.4-.3-.7-.5-1.1-.5h-.1c-.4,0-.7.2-1.1.5-5.2,4.6-10.2,8.9-15.4,13.5-.7.6-1.1,1.7-.8,2.5s.8,1,1.7,1.1h2.6v12.5c0,1.1.8,1.9,1.8,1.9h6.5c.5,0,.9,0,1.3-.5.6-.5.7-.9.7-1.6v-7c0-.3,0-.5.5-.5h4.7c.5,0,.5.1.5.5v7c0,.7.1,1.1.7,1.6.3.3.8.5,1.3.5h6.5c1,0,1.8-.8,1.8-1.9v-12.5h2.6c.9-.1,1.4-.3,1.7-1.1s0-1.9-.8-2.5c0,0-10.4-8.9-15.6-13.5Z"/>
</svg>