<?xml version="1.0" encoding="UTF-8"?>
<svg id="Capa_1" data-name="Capa 1" xmlns="http://www.w3.org/2000/svg" version="1.1" viewBox="0 0 40 40">
  <defs>
    <style>
      .cls-1 {
        fill: #000;
        stroke-width: 0px;
      }
    </style>
  </defs>
  <path class="cls-1" d="M37.8,5.8c-.3-.4-.7-.2-1-.1-4.2,1.5-8.4,3-12.5,4.5L2.7,18h0c-.5.2-.6.5-.6.8,0,.4.4.6.6.7,1,.4,2.1.7,3.1,1.1,1.5.5,3,1.1,4.5,1.6.2,0,.2.1.3.3.5,2.4,1,4.8,1.4,7.2.3,1.3.5,2.7.8,4,0,.3.2.6.5.6,0,0,.1,0,.2,0,.2,0,.4,0,.6-.3,0,0,.1,0,.2-.2l1.8-1.8c1.8-1.8,3.7-3.6,5.5-5.5.2-.2.3-.2.6-.1,1.5.5,2.9.9,4.4,1.3l1.4.4c0,0,.2,0,.3,0h.1s0,0,0,0c.5,0,.7-.4.8-.7,2.9-7,5.8-14,8.8-21,.1-.2.3-.6,0-1ZM35.4,8.9l-7.5,17.9-10-3,17.5-14.9ZM20,26l-5,5.1,1.9-6,3.1.9ZM31.1,9.3l-3.6,2.1c-5.4,3.1-10.8,6.3-16.2,9.4-.2.1-.3.1-.5,0-1.4-.5-2.8-1-4.2-1.5l-1.5-.5s0,0-.1,0l26.2-9.5ZM13.6,30.8l-.3-1.6c-.5-2.3-.9-4.6-1.4-6.9,0-.1,0-.2.1-.2h0c3-1.8,6-3.5,9-5.3,3-1.7,6-3.5,9-5.2l-1.8,1.5c-4,3.4-8.1,6.9-12.1,10.3-.2.2-.4.5-.5.8-.5,1.6-1,3.2-1.5,4.8l-.5,1.7s0,0,0,0Z"/>
</svg>