<?xml version="1.0" encoding="UTF-8"?>
<svg id="Capa_1" data-name="Capa 1" xmlns="http://www.w3.org/2000/svg" version="1.1" viewBox="0 0 40 40">
  <defs>
    <style>
      .cls-1 {
        fill: #fff;
        stroke-width: 0px;
      }
    </style>
  </defs>
  <path class="cls-1" d="M22,3.4c-.2-.2-.4-.3-.6-.5-1.1-.7-2.5-.5-3.5.4-1,1-1.9,2-2.9,2.9-1.6,1.6-3.3,3.3-4.9,4.9-1.2,1.2-1.1,3.1.1,4.2,1.1.9,2.8.9,3.9-.2,1-1,1.9-1.9,2.9-2.9,0,0,.1,0,.2-.2,0,.3,0,.5,0,.8,0,3.3,0,6.5,0,9.8,0,2.1,2.4,3.4,4.2,2.3.9-.6,1.4-1.4,1.4-2.5,0-3.3,0-6.7,0-10v-.3h0s0,0,.1.1c1,1,2,2,3,3,.9.8,2.2,1,3.3.4,1.6-.9,1.9-3.1.6-4.5-2.6-2.6-5.2-5.2-7.8-7.8Z"/>
  <path class="cls-1" d="M37.5,24.5s0,0,0,0c0-1.5-1.3-2.8-2.8-2.8s-2.8,1.3-2.8,2.8,0,0,0,0c0,1.3,0,7.2,0,7.3H8.1c0,0,0-6,0-7.3,0,0,0,0,0,0,0-1.5-1.3-2.8-2.8-2.8s-2.8,1.3-2.8,2.8c0,0,0,0,0,0,0,3.5,0,10.1,0,10.2,0,1.5,1.3,2.8,2.8,2.8,0,0,0,0,0,0,0,0,29.4,0,29.4,0,0,0,0,0,0,0,1.5,0,2.8-1.3,2.8-2.8s0-6.6,0-10.2Z"/>
</svg>